<svg width="1281" height="703" viewBox="0 0 1281 703" fill="none" xmlns="http://www.w3.org/2000/svg">
<rect x="1" width="1280" height="703" fill="white"/>
<path fill-rule="evenodd" clip-rule="evenodd" d="M908.614 186C922.945 186 936.486 189.364 948.5 195.34C960.514 189.367 974.055 186 988.386 186C1037.88 186 1078 226.072 1078 275.5C1078 324.931 1037.88 365 988.386 365C974.055 365 960.514 361.636 948.5 355.66C936.488 361.633 922.945 365 908.614 365C859.12 365 819 324.928 819 275.5C819 226.069 859.123 186 908.614 186ZM957.956 200.784C982.219 216.797 998.228 244.28 998.228 275.5C998.228 306.72 982.219 334.203 957.956 350.216C967.346 354.035 977.619 356.143 988.383 356.143C1032.98 356.143 1069.13 320.037 1069.13 275.498C1069.13 230.958 1032.98 194.852 988.383 194.852C977.617 194.852 967.346 196.96 957.956 200.781V200.784ZM934.362 346.912C934.019 346.654 933.678 346.393 933.339 346.13C933.68 346.393 934.019 346.654 934.362 346.912ZM932.807 345.712C932.389 345.381 931.975 345.047 931.564 344.709C931.975 345.047 932.391 345.381 932.807 345.712ZM931.218 344.427C930.759 344.048 930.304 343.661 929.852 343.272C930.304 343.661 930.759 344.045 931.218 344.427ZM929.647 343.096C910.73 326.687 898.769 302.488 898.769 275.5C898.769 248.512 910.73 224.313 929.647 207.904C929.177 208.31 928.715 208.72 928.256 209.136C893.886 211.795 866.825 240.491 866.825 275.5C866.825 310.507 893.886 339.205 928.256 341.862C928.715 342.277 929.177 342.688 929.647 343.094V343.096ZM929.852 207.728C930.304 207.339 930.759 206.955 931.218 206.573C930.759 206.952 930.304 207.339 929.852 207.728ZM931.564 206.291C931.975 205.955 932.389 205.619 932.807 205.291C932.389 205.622 931.975 205.952 931.564 206.291ZM933.339 204.873C933.68 204.61 934.019 204.349 934.362 204.088C934.019 204.346 933.678 204.607 933.339 204.873ZM935.216 203.453C935.489 203.252 935.763 203.052 936.038 202.854C935.763 203.052 935.487 203.25 935.216 203.453ZM948.498 345.632C924.094 331.759 907.637 305.551 907.637 275.502C907.637 245.454 924.096 219.244 948.498 205.37C972.904 219.244 989.363 245.452 989.363 275.502C989.363 305.553 972.901 331.761 948.498 345.632ZM933.477 199.617C934.372 199.617 935.264 199.639 936.152 199.668L936.609 199.835C927.888 196.615 918.459 194.854 908.619 194.854C864.022 194.854 827.87 230.963 827.87 275.5C827.87 320.04 864.025 356.146 908.619 356.146C918.459 356.146 927.891 354.385 936.609 351.165L936.152 351.332C935.264 351.363 934.374 351.385 933.477 351.385C891.514 351.385 857.495 317.41 857.495 275.5C857.495 233.59 891.514 199.615 933.477 199.615V199.617Z" fill="#9999FF"/>
<path d="M855.75 486.75H882.5C887.885 486.75 892.25 491.115 892.25 496.5C892.25 501.885 887.885 506.25 882.5 506.25H855.75V486.75Z" stroke="#4141DD" stroke-width="1.5"/>
<path d="M855.25 486.75H828.5C823.115 486.75 818.75 491.115 818.75 496.5C818.75 501.885 823.115 506.25 828.5 506.25H855.25V486.75Z" stroke="#4141DD" stroke-width="1.5"/>
<path d="M819.68 465.22C815.56 465.22 812.82 462.26 812.82 457.78C812.82 453.32 815.64 450.3 819.78 450.3C823.04 450.3 825.54 452.24 826.08 455.2H823.98C823.44 453.32 821.82 452.18 819.72 452.18C816.8 452.18 814.88 454.38 814.88 457.76C814.88 461.14 816.8 463.34 819.72 463.34C821.84 463.34 823.52 462.2 824.06 460.42H826.14C825.52 463.3 822.94 465.22 819.68 465.22ZM828.596 465H826.556L831.836 450.54H834.016L839.316 465H837.256L835.956 461.4H829.876L828.596 465ZM832.676 453.66L830.476 459.7H835.376L833.156 453.66C833.056 453.38 832.956 453.04 832.916 452.82C832.876 453.02 832.776 453.36 832.676 453.66ZM846.859 459.84H843.199V465H841.239V450.54H846.859C849.699 450.54 851.519 452.4 851.519 455.18C851.519 457.88 849.679 459.84 846.859 459.84ZM846.519 452.3H843.199V458.08H846.439C848.379 458.08 849.459 456.94 849.459 455.16C849.459 453.34 848.359 452.3 846.519 452.3ZM852.899 454.44C852.899 451.96 854.899 450.28 857.879 450.28C860.639 450.28 862.419 451.82 862.579 454.32H860.599C860.499 452.88 859.479 452.04 857.859 452.04C856.039 452.04 854.859 452.96 854.859 454.38C854.859 455.54 855.519 456.24 856.879 456.56L859.259 457.12C861.619 457.66 862.819 458.94 862.819 460.98C862.819 463.58 860.799 465.24 857.719 465.24C854.779 465.24 852.819 463.7 852.699 461.22H854.699C854.739 462.6 855.899 463.48 857.719 463.48C859.639 463.48 860.859 462.58 860.859 461.14C860.859 460 860.239 459.28 858.859 458.96L856.479 458.42C854.119 457.88 852.899 456.52 852.899 454.44ZM865.182 459.86V450.54H867.142V459.74C867.142 462.06 868.422 463.34 870.722 463.34C873.002 463.34 874.262 462.04 874.262 459.74V450.54H876.242V459.86C876.242 463.18 874.122 465.24 870.722 465.24C867.302 465.24 865.182 463.2 865.182 459.86ZM881.46 450.54V463.18H887.82V465H879.5V450.54H881.46ZM898.77 465H889.95V450.54H898.77V452.34H891.91V456.86H898.09V458.6H891.91V463.18H898.77V465Z" fill="#4141DD"/>
<path d="M997.64 450.54V463.18H1004V465H995.68V450.54H997.64ZM1014.95 465H1006.13V450.54H1014.95V452.34H1008.09V456.86H1014.27V458.6H1008.09V463.18H1014.95V465ZM1016.39 452.34V450.54H1027.05V452.34H1022.71V465H1020.75V452.34H1016.39ZM1028.23 452.34V450.54H1038.89V452.34H1034.55V465H1032.59V452.34H1028.23ZM1049.68 465H1040.86V450.54H1049.68V452.34H1042.82V456.86H1049V458.6H1042.82V463.18H1049.68V465ZM1054.48 465H1052.52V450.54H1057.98C1061.08 450.54 1062.92 452.18 1062.92 454.88C1062.92 456.88 1061.92 458.32 1060.12 458.9L1063.06 465H1060.88L1058.18 459.28H1054.48V465ZM1054.48 452.3V457.54H1058C1059.82 457.54 1060.86 456.56 1060.86 454.9C1060.86 453.22 1059.78 452.3 1057.98 452.3H1054.48ZM1077.07 465.22C1072.95 465.22 1070.21 462.26 1070.21 457.78C1070.21 453.32 1073.03 450.3 1077.17 450.3C1080.43 450.3 1082.93 452.24 1083.47 455.2H1081.37C1080.83 453.32 1079.21 452.18 1077.11 452.18C1074.19 452.18 1072.27 454.38 1072.27 457.76C1072.27 461.14 1074.19 463.34 1077.11 463.34C1079.23 463.34 1080.91 462.2 1081.45 460.42H1083.53C1082.91 463.3 1080.33 465.22 1077.07 465.22Z" fill="#4141DD"/>
<path d="M1039.52 508.33C1033.34 508.33 1029.23 503.89 1029.23 497.17C1029.23 490.48 1033.46 485.95 1039.67 485.95C1044.56 485.95 1048.31 488.86 1049.12 493.3H1045.97C1045.16 490.48 1042.73 488.77 1039.58 488.77C1035.2 488.77 1032.32 492.07 1032.32 497.14C1032.32 502.21 1035.2 505.51 1039.58 505.51C1042.76 505.51 1045.28 503.8 1046.09 501.13H1049.21C1048.28 505.45 1044.41 508.33 1039.52 508.33Z" fill="#4141DD"/>
<path d="M941.6 457.46H945.8V453.26H947.4V457.46H951.6V459.06H947.4V463.28H945.8V459.06H941.6V457.46Z" fill="#4141DD"/>
<path d="M641 0H0V703H641V0Z" fill="#9999FF"/>
<path fill-rule="evenodd" clip-rule="evenodd" d="M259.508 205.014C282.901 205.014 305.005 210.519 324.613 220.296C344.222 210.519 366.326 205.014 389.719 205.014C470.508 205.014 536 270.589 536 351.48C536 432.372 470.508 497.947 389.719 497.947C366.326 497.947 344.222 492.441 324.613 482.664C305.005 492.441 282.901 497.947 259.508 497.947C178.718 497.947 113.227 432.372 113.227 351.48C113.227 270.589 178.718 205.014 259.508 205.014ZM340.051 229.207C379.659 255.412 405.789 300.39 405.789 351.48C405.789 402.57 379.659 447.547 340.051 473.754C355.382 480.003 372.146 483.454 389.719 483.454C462.51 483.454 521.526 424.368 521.526 351.48C521.526 278.592 462.51 219.506 389.719 219.506C372.146 219.506 355.379 222.958 340.051 229.207ZM301.539 468.343C300.978 467.921 300.42 467.492 299.867 467.06C300.42 467.492 300.978 467.917 301.539 468.343ZM298.998 466.38C298.316 465.841 297.641 465.294 296.969 464.743C297.641 465.297 298.319 465.841 298.998 466.38ZM293.837 462.097C262.959 435.246 243.438 395.645 243.438 351.48C243.438 307.315 262.959 267.715 293.837 240.863C293.072 241.528 292.316 242.2 291.566 242.88C235.463 247.231 191.289 294.19 191.289 351.48C191.289 408.771 235.463 455.73 291.566 460.081C292.316 460.761 293.072 461.432 293.837 462.097ZM294.174 240.571C294.91 239.933 295.657 239.303 296.405 238.684C295.653 239.303 294.91 239.937 294.174 240.571ZM296.969 238.217C297.641 237.666 298.319 237.12 298.998 236.581C298.316 237.12 297.641 237.666 296.969 238.217ZM299.87 235.897C300.424 235.464 300.982 235.039 301.543 234.613C300.982 235.039 300.427 235.464 299.87 235.897ZM302.931 233.573C303.374 233.243 303.822 232.921 304.273 232.594C303.822 232.917 303.374 233.243 302.931 233.573ZM324.609 466.247C284.775 443.542 257.912 400.653 257.912 351.48C257.912 302.304 284.778 259.415 324.609 236.714C364.448 259.415 391.315 302.304 391.315 351.48C391.315 400.657 364.445 443.546 324.609 466.247ZM300.09 227.297C301.55 227.297 303.006 227.331 304.455 227.381L305.198 227.654C290.963 222.388 275.571 219.506 259.508 219.506C186.716 219.506 127.701 278.592 127.701 351.48C127.701 424.368 186.716 483.454 259.508 483.454C275.571 483.454 290.963 480.573 305.198 475.306L304.455 475.579C303.003 475.629 301.55 475.663 300.09 475.663C231.591 475.663 176.065 420.066 176.065 351.48C176.065 282.894 231.591 227.297 300.09 227.297Z" fill="white" fill-opacity="0.15"/>
<path d="M389.464 497.463C470.209 497.463 535.665 432.006 535.665 351.262C535.665 270.518 470.209 205.062 389.464 205.062C308.72 205.062 243.264 270.518 243.264 351.262C243.264 432.006 308.72 497.463 389.464 497.463Z" stroke="white" stroke-width="0.5"/>
<path d="M389.464 497.463C470.209 497.463 535.665 432.006 535.665 351.262C535.665 270.518 470.209 205.062 389.464 205.062C308.72 205.062 243.264 270.518 243.264 351.262C243.264 432.006 308.72 497.463 389.464 497.463Z" stroke="white" stroke-width="0.5"/>
<path d="M259.964 497.463C340.709 497.463 406.165 432.006 406.165 351.262C406.165 270.518 340.709 205.062 259.964 205.062C179.22 205.062 113.764 270.518 113.764 351.262C113.764 432.006 179.22 497.463 259.964 497.463Z" stroke="white" stroke-width="0.5"/>
<path d="M259.964 497.463C340.709 497.463 406.165 432.006 406.165 351.262C406.165 270.518 340.709 205.062 259.964 205.062C179.22 205.062 113.764 270.518 113.764 351.262C113.764 432.006 179.22 497.463 259.964 497.463Z" stroke="white" stroke-width="0.5"/>
<path d="M389.383 483.129C462.211 483.129 521.25 424.09 521.25 351.262C521.25 278.434 462.211 219.395 389.383 219.395C316.555 219.395 257.516 278.434 257.516 351.262C257.516 424.09 316.555 483.129 389.383 483.129Z" stroke="white" stroke-width="0.5"/>
<path d="M389.383 483.129C462.211 483.129 521.25 424.09 521.25 351.262C521.25 278.434 462.211 219.395 389.383 219.395C316.555 219.395 257.516 278.434 257.516 351.262C257.516 424.09 316.555 483.129 389.383 483.129Z" stroke="white" stroke-width="0.5"/>
<path d="M259.543 483.129C332.372 483.129 391.411 424.09 391.411 351.262C391.411 278.434 332.372 219.395 259.543 219.395C186.715 219.395 127.676 278.434 127.676 351.262C127.676 424.09 186.715 483.129 259.543 483.129Z" stroke="white" stroke-width="0.5"/>
<path d="M259.543 483.129C332.372 483.129 391.411 424.09 391.411 351.262C391.411 278.434 332.372 219.395 259.543 219.395C186.715 219.395 127.676 278.434 127.676 351.262C127.676 424.09 186.715 483.129 259.543 483.129Z" stroke="white" stroke-width="0.5"/>
<path d="M300.071 475.581C368.61 475.581 424.172 420.019 424.172 351.48C424.172 282.941 368.61 227.379 300.071 227.379C231.532 227.379 175.971 282.941 175.971 351.48C175.971 420.019 231.532 475.581 300.071 475.581Z" stroke="white" stroke-width="0.5"/>
<path d="M300.071 475.581C368.61 475.581 424.172 420.019 424.172 351.48C424.172 282.941 368.61 227.379 300.071 227.379C231.532 227.379 175.971 282.941 175.971 351.48C175.971 420.019 231.532 475.581 300.071 475.581Z" stroke="white" stroke-width="0.5"/>
<path d="M300.07 460.538C360.301 460.538 409.128 411.711 409.128 351.48C409.128 291.249 360.301 242.422 300.07 242.422C239.839 242.422 191.012 291.249 191.012 351.48C191.012 411.711 239.839 460.538 300.07 460.538Z" stroke="white" stroke-width="0.5"/>
<path d="M300.07 460.538C360.301 460.538 409.128 411.711 409.128 351.48C409.128 291.249 360.301 242.422 300.07 242.422C239.839 242.422 191.012 291.249 191.012 351.48C191.012 411.711 239.839 460.538 300.07 460.538Z" stroke="white" stroke-width="0.5"/>
<path d="M105.771 495.613V497.661" stroke="black"/>
</svg>
