<svg width="606" height="595" viewBox="0 0 606 595" fill="none" xmlns="http://www.w3.org/2000/svg">
<rect width="606" height="595" fill="#36348A"/>
<path fill-rule="evenodd" clip-rule="evenodd" d="M130.643 244C139.273 244 147.428 246.029 154.662 249.631C161.896 246.029 170.051 244 178.681 244C208.486 244 232.648 268.162 232.648 297.967C232.648 327.772 208.486 351.934 178.681 351.934C170.051 351.934 161.896 349.906 154.662 346.303C147.428 349.906 139.273 351.934 130.643 351.934C100.838 351.934 76.6758 327.772 76.6758 297.967C76.6758 268.162 100.838 244 130.643 244ZM160.357 252.914C174.97 262.57 184.61 279.142 184.61 297.967C184.61 316.792 174.97 333.364 160.357 343.02C166.013 345.323 172.198 346.594 178.681 346.594C205.536 346.594 227.308 324.823 227.308 297.967C227.308 271.111 205.536 249.34 178.681 249.34C172.198 249.34 166.012 250.612 160.357 252.914ZM146.149 341.026C145.942 340.871 145.737 340.713 145.532 340.554C145.737 340.713 145.942 340.87 146.149 341.026ZM145.212 340.303C144.96 340.104 144.711 339.903 144.463 339.7C144.711 339.904 144.961 340.104 145.212 340.303ZM143.308 338.725C131.916 328.831 124.714 314.24 124.714 297.967C124.714 281.694 131.916 267.103 143.308 257.209C143.025 257.454 142.747 257.702 142.47 257.952C121.772 259.555 105.475 276.858 105.475 297.967C105.475 319.076 121.772 336.379 142.47 337.982C142.747 338.233 143.025 338.48 143.308 338.725ZM143.432 257.101C143.704 256.866 143.979 256.634 144.255 256.406C143.978 256.634 143.704 256.868 143.432 257.101ZM144.463 256.234C144.711 256.031 144.961 255.83 145.212 255.631C144.96 255.83 144.711 256.031 144.463 256.234ZM145.534 255.379C145.738 255.22 145.944 255.063 146.151 254.906C145.944 255.063 145.739 255.22 145.534 255.379ZM146.663 254.523C146.826 254.401 146.991 254.283 147.158 254.162C146.991 254.281 146.826 254.401 146.663 254.523ZM154.661 340.254C139.964 331.888 130.054 316.085 130.054 297.967C130.054 279.848 139.966 264.045 154.661 255.68C169.358 264.045 179.27 279.848 179.27 297.967C179.27 316.087 169.357 331.89 154.661 340.254ZM145.615 252.211C146.153 252.211 146.691 252.223 147.225 252.241L147.499 252.342C142.247 250.402 136.569 249.34 130.643 249.34C103.788 249.34 82.0157 271.111 82.0157 297.967C82.0157 324.823 103.788 346.594 130.643 346.594C136.569 346.594 142.247 345.532 147.499 343.592L147.225 343.693C146.689 343.711 146.153 343.724 145.615 343.724C120.344 343.724 99.8583 323.238 99.8583 297.967C99.8583 272.696 120.344 252.211 145.615 252.211Z" fill="#9999FF"/>
<path d="M264.217 293.633C271.442 293.633 277.036 289.375 278.206 282.943H272.652C271.65 286.325 268.476 288.497 264.343 288.497C258.747 288.497 255.156 284.321 255.156 277.85C255.156 271.336 258.705 267.244 264.343 267.244C268.393 267.244 271.442 269.333 272.485 272.882H278.123C277.079 266.326 271.693 262.108 264.469 262.108C255.534 262.108 249.562 268.414 249.562 277.892C249.562 287.454 255.324 293.635 264.217 293.635V293.633Z" fill="white"/>
<path d="M285.825 293.132V281.858C285.825 278.767 287.704 276.514 290.92 276.514C293.508 276.514 295.221 278.184 295.221 281.649V293.132H300.316V280.438C300.316 275.094 297.642 271.877 292.549 271.877C289.584 271.877 287.163 273.171 285.867 275.176V262.065H280.731V293.132H285.825Z" fill="white"/>
<path d="M306.561 268.372C308.231 268.372 309.609 266.994 309.609 265.281C309.609 263.569 308.231 262.233 306.561 262.233C304.807 262.233 303.429 263.569 303.429 265.281C303.429 266.994 304.807 268.372 306.561 268.372ZM304.013 293.134H309.107V272.506H304.013V293.134Z" fill="white"/>
<path d="M325.999 272.422C325.164 272.213 324.454 272.129 323.744 272.129C320.988 272.129 319.025 273.507 318.148 275.554L317.855 272.548H313.053V293.134H318.146V283.113C318.146 279.105 320.444 277.142 324.119 277.142H325.998V272.423L325.999 272.422Z" fill="white"/>
<path d="M326.23 282.777C326.23 289.208 330.865 293.635 337.254 293.635C343.644 293.635 348.278 289.208 348.278 282.777C348.278 276.347 343.644 271.921 337.254 271.921C330.865 271.921 326.23 276.347 326.23 282.777ZM331.324 282.777C331.324 279.019 333.746 276.472 337.253 276.472C340.76 276.472 343.183 279.018 343.183 282.777C343.183 286.536 340.762 289.082 337.253 289.082C333.746 289.082 331.324 286.536 331.324 282.777Z" fill="white"/>
<path d="M256.492 333.574V322.634C256.492 318.834 256.45 315.953 256.158 314.116L263.883 333.574H268.81L276.577 314.074C276.285 316.245 276.285 318.041 276.285 324.179V333.574H281.463V303.05H276.201L266.347 327.352L256.492 303.05H251.314V333.574H256.492Z" fill="white"/>
<path d="M295.391 334.117C300.777 334.117 304.536 331.403 305.412 326.893H300.693C300.108 328.855 298.271 329.941 295.473 329.941C292.091 329.941 290.17 328.104 289.795 324.471L305.328 324.429V322.884C305.328 316.455 301.402 312.319 295.223 312.319C289.168 312.319 284.95 316.788 284.95 323.259C284.95 329.649 289.251 334.117 295.389 334.117H295.391ZM295.265 316.495C298.313 316.495 300.276 318.374 300.276 321.214H289.921C290.422 318.124 292.26 316.495 295.265 316.495Z" fill="white"/>
<path d="M316.582 334.117C319.715 334.117 322.387 332.739 323.639 330.358L323.973 333.573H328.65V302.505H323.598V315.576C322.304 313.529 319.757 312.319 316.875 312.319C310.653 312.319 306.896 316.912 306.896 323.343C306.896 329.732 310.611 334.117 316.582 334.117ZM317.71 329.44C314.161 329.44 311.989 326.85 311.989 323.177C311.989 319.502 314.161 316.872 317.71 316.872C321.259 316.872 323.556 319.46 323.556 323.177C323.556 326.892 321.259 329.44 317.71 329.44Z" fill="white"/>
<path d="M335.185 308.812C336.855 308.812 338.233 307.434 338.233 305.722C338.233 304.009 336.855 302.673 335.185 302.673C333.431 302.673 332.053 304.009 332.053 305.722C332.053 307.434 333.431 308.812 335.185 308.812ZM332.637 333.574H337.731V312.946H332.637V333.574Z" fill="white"/>
<path d="M340.468 323.217C340.468 329.773 344.56 334.117 350.824 334.117C356.21 334.117 360.219 330.818 360.845 326.015H355.709C355.166 328.27 353.371 329.523 350.824 329.523C347.567 329.523 345.562 327.101 345.562 323.217C345.562 319.334 347.733 316.87 350.99 316.87C353.412 316.87 355.124 318.08 355.708 320.419H360.803C360.26 315.45 356.418 312.318 350.78 312.318C344.685 312.318 340.467 316.828 340.467 323.216L340.468 323.217Z" fill="white"/>
<path d="M369.47 334.117C372.685 334.117 375.483 332.655 376.36 330.526L376.736 333.574H381.205V321.048C381.205 315.327 377.781 312.321 372.227 312.321C366.631 312.321 362.958 315.243 362.958 319.712H367.3C367.3 317.54 368.97 316.287 371.977 316.287C374.565 316.287 376.235 317.415 376.235 320.212V320.671L370.056 321.13C365.171 321.506 362.415 323.886 362.415 327.686C362.415 331.569 365.087 334.117 369.471 334.117H369.47ZM371.14 330.275C368.845 330.275 367.591 329.356 367.591 327.477C367.591 325.807 368.803 324.763 371.975 324.471L376.276 324.137V325.222C376.276 328.396 374.271 330.275 371.14 330.275Z" fill="white"/>
<path d="M390.035 333.574V302.507H384.982V333.574H390.035Z" fill="white"/>
<path d="M418.996 334.075C426.22 334.075 431.814 329.816 432.984 323.385H427.43C426.428 326.767 423.254 328.939 419.121 328.939C413.526 328.939 409.934 324.763 409.934 318.292C409.934 311.778 413.484 307.686 419.121 307.686C423.172 307.686 426.22 309.775 427.264 313.324H432.901C431.858 306.768 426.472 302.55 419.247 302.55C410.312 302.55 404.34 308.855 404.34 318.334C404.34 327.896 410.102 334.076 418.996 334.076V334.075Z" fill="white"/>
<path d="M444.948 334.117C450.335 334.117 454.094 331.403 454.969 326.893H450.251C449.666 328.855 447.829 329.941 445.031 329.941C441.648 329.941 439.727 328.104 439.353 324.471L454.885 324.429V322.884C454.885 316.455 450.96 312.319 444.781 312.319C438.726 312.319 434.508 316.788 434.508 323.259C434.508 329.649 438.808 334.117 444.947 334.117H444.948ZM444.823 316.495C447.871 316.495 449.834 318.374 449.834 321.214H439.478C439.979 318.124 441.817 316.495 444.823 316.495Z" fill="white"/>
<path d="M462.758 333.574V322.468C462.758 319.127 464.679 316.956 467.811 316.956C470.442 316.956 472.154 318.626 472.154 322.091V333.574H477.249V320.88C477.249 315.536 474.576 312.319 469.399 312.319C466.601 312.319 464.096 313.531 462.802 315.618L462.385 312.946H457.666V333.574H462.76H462.758Z" fill="white"/>
<path d="M487.959 333.574V317.205H491.968V312.946H487.959V306.515H482.865V312.946H478.897V317.205H482.865V333.574H487.959Z" fill="white"/>
<path d="M502.848 334.117C508.234 334.117 511.993 331.403 512.869 326.893H508.15C507.565 328.855 505.728 329.941 502.93 329.941C499.548 329.941 497.627 328.104 497.252 324.471L512.785 324.429V322.884C512.785 316.455 508.859 312.319 502.68 312.319C496.625 312.319 492.407 316.788 492.407 323.259C492.407 329.649 496.708 334.117 502.846 334.117H502.848ZM502.722 316.495C505.77 316.495 507.733 318.374 507.733 321.214H497.378C497.879 318.124 499.717 316.495 502.722 316.495Z" fill="white"/>
<path d="M528.509 312.862C527.673 312.654 526.964 312.57 526.254 312.57C523.498 312.57 521.535 313.948 520.658 315.995L520.365 312.988H515.562V333.574H520.656V323.553C520.656 319.545 522.953 317.582 526.628 317.582H528.507V312.864L528.509 312.862Z" fill="white"/>
<path fill-rule="evenodd" clip-rule="evenodd" d="M363.152 254.294C366.461 254.294 369.143 256.976 369.143 260.283C369.143 263.592 366.461 266.273 363.152 266.273C359.844 266.273 357.163 263.592 357.163 260.283C357.163 256.974 359.845 254.294 363.152 254.294ZM361.921 263.355V261.062H363.24L364.281 263.355H365.458L364.289 260.834C365.013 260.54 365.399 259.951 365.399 259.129C365.399 257.919 364.583 257.214 363.188 257.214H360.844V263.355H361.92H361.921ZM361.921 258.171H363.19C363.87 258.171 364.274 258.516 364.274 259.129C364.274 259.75 363.87 260.112 363.19 260.112H361.921V258.171ZM363.152 255.259C365.928 255.259 368.177 257.509 368.177 260.284C368.177 263.06 365.928 265.31 363.152 265.31C360.377 265.31 358.127 263.06 358.127 260.284C358.127 257.509 360.377 255.259 363.152 255.259Z" fill="white"/>
</svg>
