<svg width="14" height="15" viewBox="0 0 14 15" fill="none" xmlns="http://www.w3.org/2000/svg">
<path d="M13.1375 0.894531H0.767575C0.564027 0.894614 0.368839 0.975509 0.224908 1.11944C0.080978 1.26337 8.22584e-05 1.45856 0 1.66211V14.0321C8.22584e-05 14.2356 0.080978 14.4308 0.224908 14.5747C0.368839 14.7187 0.564027 14.7996 0.767575 14.7996H6.95256V9.33692H5.29046V7.35048H6.95256V5.76753C6.95256 3.97166 8.19812 2.99396 9.80249 2.99396C10.5701 2.99396 11.3957 3.05169 11.5875 3.07714V4.95278H10.3093C9.43655 4.95278 9.27018 5.36559 9.27018 5.97393V7.35048H11.3497L11.0782 9.33692H9.27018V14.7996H13.1375C13.3411 14.7996 13.5363 14.7187 13.6802 14.5747C13.8241 14.4308 13.905 14.2356 13.9051 14.0321V1.66211C13.905 1.45856 13.8241 1.26337 13.6802 1.11944C13.5363 0.975509 13.3411 0.894614 13.1375 0.894531Z" fill="white"/>
</svg>
