<svg width="14" height="14" viewBox="0 0 14 14" fill="none" xmlns="http://www.w3.org/2000/svg">
<path d="M10.132 2.87515C9.97521 2.87515 9.82197 2.92163 9.69162 3.00873C9.56128 3.09582 9.45969 3.2196 9.3997 3.36443C9.33972 3.50926 9.32402 3.66862 9.3546 3.82237C9.38518 3.97612 9.46067 4.11734 9.57152 4.22819C9.68236 4.33903 9.82359 4.41452 9.97734 4.4451C10.1311 4.47569 10.2905 4.45999 10.4353 4.4C10.5801 4.34001 10.7039 4.23842 10.791 4.10808C10.8781 3.97774 10.9246 3.8245 10.9246 3.66774C10.9246 3.45753 10.8411 3.25593 10.6924 3.10729C10.5438 2.95866 10.3422 2.87515 10.132 2.87515ZM13.1702 4.47354C13.1574 3.92553 13.0547 3.38334 12.8664 2.86855C12.6985 2.42808 12.4371 2.02924 12.1002 1.69947C11.7732 1.36092 11.3734 1.10118 10.9312 0.939905C10.4177 0.745826 9.87493 0.64084 9.32616 0.629473C8.62604 0.589844 8.40147 0.589844 6.60493 0.589844C4.80839 0.589844 4.58382 0.589844 3.8837 0.629473C3.33493 0.64084 2.79213 0.745826 2.2787 0.939905C1.83728 1.10281 1.43785 1.36233 1.10963 1.69947C0.771077 2.02653 0.511338 2.4263 0.350061 2.86855C0.155983 3.38197 0.0509967 3.92477 0.0396295 4.47354C-3.69079e-08 5.17367 0 5.39823 0 7.19478C0 8.99132 -3.69079e-08 9.21589 0.0396295 9.91601C0.0509967 10.4648 0.155983 11.0076 0.350061 11.521C0.511338 11.9632 0.771077 12.363 1.10963 12.6901C1.43785 13.0272 1.83728 13.2867 2.2787 13.4496C2.79213 13.6437 3.33493 13.7487 3.8837 13.7601C4.58382 13.7997 4.80839 13.7997 6.60493 13.7997C8.40147 13.7997 8.62604 13.7997 9.32616 13.7601C9.87493 13.7487 10.4177 13.6437 10.9312 13.4496C11.3734 13.2884 11.7732 13.0286 12.1002 12.6901C12.4386 12.3615 12.7002 11.9623 12.8664 11.521C13.0547 11.0062 13.1574 10.464 13.1702 9.91601C13.1702 9.21589 13.2099 8.99132 13.2099 7.19478C13.2099 5.39823 13.2099 5.17367 13.1702 4.47354ZM11.9813 9.83675C11.9765 10.256 11.9006 10.6714 11.7568 11.0653C11.6513 11.3527 11.4819 11.6124 11.2614 11.8248C11.0472 12.0431 10.788 12.2122 10.5018 12.3202C10.108 12.464 9.69259 12.54 9.27332 12.5448C8.61283 12.5778 8.36845 12.5844 6.63135 12.5844C4.89425 12.5844 4.64987 12.5844 3.98938 12.5448C3.55404 12.5529 3.12056 12.4859 2.70802 12.3466C2.43443 12.2331 2.18713 12.0645 1.98148 11.8513C1.76225 11.6391 1.59499 11.3791 1.49271 11.0917C1.33146 10.6922 1.24202 10.2674 1.22852 9.83675C1.22852 9.17625 1.18889 8.93187 1.18889 7.19478C1.18889 5.45768 1.18889 5.2133 1.22852 4.5528C1.23148 4.12418 1.30972 3.69941 1.45969 3.29787C1.57597 3.01908 1.75444 2.77057 1.98148 2.57132C2.18215 2.34422 2.43014 2.16386 2.70802 2.04293C3.11063 1.89765 3.53496 1.82172 3.96296 1.81836C4.62345 1.81836 4.86783 1.77873 6.60493 1.77873C8.34203 1.77873 8.58641 1.77873 9.2469 1.81836C9.66617 1.82317 10.0816 1.8991 10.4754 2.04293C10.7756 2.15432 11.045 2.33543 11.2614 2.57132C11.4779 2.77421 11.647 3.02226 11.7568 3.29787C11.9036 3.70006 11.9796 4.12466 11.9813 4.5528C12.0144 5.2133 12.021 5.45768 12.021 7.19478C12.021 8.93187 12.0144 9.17625 11.9813 9.83675ZM6.60493 3.80645C5.93507 3.80775 5.28062 4.00758 4.72428 4.38069C4.16794 4.7538 3.73468 5.28344 3.47924 5.90269C3.22379 6.52194 3.15764 7.20301 3.28912 7.85985C3.4206 8.51668 3.74383 9.11981 4.21796 9.59301C4.69209 10.0662 5.29584 10.3883 5.95293 10.5185C6.61002 10.6487 7.29096 10.5812 7.90971 10.3245C8.52847 10.0679 9.05726 9.63361 9.42929 9.07654C9.80131 8.51948 9.99986 7.86464 9.99987 7.19478C10.0007 6.74901 9.91348 6.30747 9.74309 5.89556C9.57271 5.48364 9.32257 5.10947 9.00706 4.79458C8.69155 4.47968 8.3169 4.23027 7.90465 4.06069C7.4924 3.89111 7.05069 3.8047 6.60493 3.80645ZM6.60493 9.39422C6.16992 9.39422 5.74468 9.26522 5.38299 9.02354C5.02129 8.78187 4.73938 8.43836 4.57291 8.03647C4.40644 7.63457 4.36288 7.19234 4.44775 6.76569C4.53262 6.33904 4.74209 5.94713 5.04969 5.63953C5.35729 5.33194 5.74919 5.12246 6.17584 5.03759C6.60249 4.95273 7.04473 4.99628 7.44662 5.16276C7.84852 5.32923 8.19202 5.61113 8.4337 5.97283C8.67538 6.33453 8.80437 6.75977 8.80437 7.19478C8.80437 7.48361 8.74748 7.76962 8.63695 8.03647C8.52642 8.30331 8.36441 8.54578 8.16017 8.75002C7.95594 8.95425 7.71347 9.11626 7.44662 9.2268C7.17977 9.33733 6.89377 9.39422 6.60493 9.39422Z" fill="white"/>
</svg>
