<svg width="18" height="16" viewBox="0 0 18 16" fill="none" xmlns="http://www.w3.org/2000/svg">
<path fill-rule="evenodd" clip-rule="evenodd" d="M17.3814 15.8013H13.5399V10.2465C13.5399 8.79253 12.939 7.79996 11.6176 7.79996C10.6069 7.79996 10.0448 8.46977 9.78316 9.1153C9.68505 9.347 9.70039 9.66976 9.70039 9.99253V15.8013H5.89464C5.89464 15.8013 5.94369 5.96153 5.89464 5.06709H9.70039V6.75174C9.92522 6.01515 11.1413 4.96389 13.082 4.96389C15.4898 4.96389 17.3814 6.5079 17.3814 9.83267V15.8013ZM2.04595 3.72444H2.02143C0.795083 3.72444 0 2.90386 0 1.86373C0 0.803365 0.818584 0 2.06946 0C3.31931 0 4.08782 0.801351 4.11234 1.8607C4.11234 2.90083 3.3193 3.72444 2.04595 3.72444ZM0.438407 5.06709H3.8262V15.8013H0.438407V5.06709Z" fill="white"/>
</svg>
