<svg width="606" height="595" viewBox="0 0 606 595" fill="none" xmlns="http://www.w3.org/2000/svg">
<rect width="606" height="595" fill="#F2C800"/>
<path d="M387.634 230.952V225.183H390.35V223.237H382.74V225.183H385.469V230.952H387.634ZM393.034 230.952V227.763L392.953 226.473H393.103L393.541 227.763L394.692 230.491H397.318L398.469 227.763L398.907 226.473H399.056L398.975 227.763V230.952H401.14V223.238H398.204L396.857 226.439L396.131 228.431H395.982L395.222 226.439L393.806 223.238H390.87V230.952H393.035H393.034Z" fill="black"/>
<path fill-rule="evenodd" clip-rule="evenodd" d="M296.184 321.092L243.228 249.657L205 314.865L222.764 338.551L246.148 298.663L297.975 371.977L353.955 277.342L380.943 323.715L398.705 300.028C383.537 274.257 368.405 248.664 353.277 223L296.185 321.092H296.184Z" fill="black"/>
</svg>
