<svg width="1280" height="703" viewBox="0 0 1280 703" fill="none" xmlns="http://www.w3.org/2000/svg">
<rect width="1280" height="703" fill="#36348A"/>
<path fill-rule="evenodd" clip-rule="evenodd" d="M342.5 258C357.452 258 371.581 261.514 384.114 267.756C396.647 261.514 410.776 258 425.728 258C477.367 258 519.228 299.861 519.228 351.5C519.228 403.139 477.367 445 425.728 445C410.776 445 396.647 441.486 384.114 435.244C371.581 441.486 357.452 445 342.5 445C290.861 445 249 403.139 249 351.5C249 299.861 290.861 258 342.5 258ZM393.981 273.444C419.298 290.173 436 318.886 436 351.5C436 384.114 419.298 412.827 393.981 429.556C403.781 433.545 414.496 435.748 425.728 435.748C472.255 435.748 509.976 398.029 509.976 351.5C509.976 304.971 472.255 267.252 425.728 267.252C414.496 267.252 403.778 269.455 393.981 273.444ZM369.365 426.102C369.007 425.833 368.65 425.559 368.296 425.282C368.65 425.559 369.007 425.83 369.365 426.102ZM367.741 424.849C367.305 424.504 366.874 424.155 366.445 423.804C366.874 424.158 367.307 424.504 367.741 424.849ZM364.442 422.115C344.706 404.973 332.228 379.693 332.228 351.5C332.228 323.306 344.706 298.026 364.442 280.885C363.953 281.31 363.471 281.739 362.991 282.172C327.131 284.95 298.896 314.927 298.896 351.5C298.896 388.072 327.131 418.05 362.991 420.828C363.471 421.261 363.953 421.69 364.442 422.115ZM364.658 280.699C365.128 280.292 365.606 279.889 366.083 279.494C365.603 279.889 365.128 280.294 364.658 280.699ZM366.445 279.196C366.874 278.845 367.307 278.496 367.741 278.151C367.305 278.496 366.874 278.845 366.445 279.196ZM368.299 277.715C368.653 277.439 369.009 277.167 369.368 276.896C369.009 277.167 368.655 277.439 368.299 277.715ZM370.255 276.232C370.538 276.021 370.824 275.815 371.113 275.606C370.824 275.812 370.538 276.021 370.255 276.232ZM384.112 424.764C358.65 410.27 341.48 382.89 341.48 351.5C341.48 320.107 358.652 292.728 384.112 278.236C409.576 292.728 426.748 320.107 426.748 351.5C426.748 382.893 409.573 410.272 384.112 424.764ZM368.439 272.225C369.372 272.225 370.303 272.247 371.229 272.279L371.704 272.453C362.605 269.091 352.767 267.252 342.5 267.252C295.973 267.252 258.252 304.971 258.252 351.5C258.252 398.029 295.973 435.748 342.5 435.748C352.767 435.748 362.605 433.909 371.704 430.547L371.229 430.721C370.301 430.753 369.372 430.775 368.439 430.775C324.656 430.775 289.165 395.283 289.165 351.5C289.165 307.717 324.656 272.225 368.439 272.225Z" fill="#9999FF"/>
<path d="M573.921 343.991C586.437 343.991 596.13 336.613 598.156 325.471H588.534C586.798 331.329 581.299 335.093 574.139 335.093C564.444 335.093 558.222 327.858 558.222 316.646C558.222 305.361 564.371 298.271 574.139 298.271C581.156 298.271 586.437 301.89 588.245 308.039H598.013C596.205 296.681 586.874 289.374 574.357 289.374C558.876 289.374 548.529 300.298 548.529 316.719C548.529 333.285 558.513 343.994 573.921 343.994V343.991Z" fill="white"/>
<path d="M611.36 343.123V323.59C611.36 318.236 614.615 314.331 620.188 314.331C624.672 314.331 627.638 317.225 627.638 323.229V343.123H636.466V321.13C636.466 311.871 631.834 306.299 623.009 306.299C617.873 306.299 613.677 308.541 611.433 312.014V289.298H602.535V343.123H611.36Z" fill="white"/>
<path d="M647.284 300.224C650.178 300.224 652.566 297.837 652.566 294.87C652.566 291.904 650.178 289.589 647.284 289.589C644.245 289.589 641.857 291.904 641.857 294.87C641.857 297.837 644.245 300.224 647.284 300.224ZM642.871 343.125H651.696V307.387H642.871V343.125Z" fill="white"/>
<path d="M680.961 307.242C679.514 306.881 678.285 306.735 677.054 306.735C672.279 306.735 668.878 309.123 667.359 312.669L666.852 307.46H658.531V343.126H667.356V325.764C667.356 318.82 671.336 315.42 677.703 315.42H680.959V307.244L680.961 307.242Z" fill="white"/>
<path d="M681.361 325.183C681.361 336.325 689.391 343.994 700.461 343.994C711.53 343.994 719.56 336.325 719.56 325.183C719.56 314.043 711.53 306.374 700.461 306.374C689.391 306.374 681.361 314.043 681.361 325.183ZM690.186 325.183C690.186 318.672 694.382 314.259 700.458 314.259C706.535 314.259 710.733 318.67 710.733 325.183C710.733 331.695 706.537 336.107 700.458 336.107C694.382 336.107 690.186 331.695 690.186 325.183Z" fill="white"/>
<path d="M560.539 413.19V394.236C560.539 387.653 560.466 382.66 559.96 379.478L573.344 413.19H581.88L595.337 379.405C594.831 383.167 594.831 386.279 594.831 396.912V413.19H603.801V360.306H594.685L577.612 402.409L560.539 360.306H551.568V413.19H560.539Z" fill="white"/>
<path d="M627.931 414.13C637.262 414.13 643.775 409.428 645.292 401.614H637.117C636.104 405.014 632.921 406.895 628.074 406.895C622.213 406.895 618.885 403.713 618.235 397.418L645.147 397.346V394.67C645.147 383.53 638.346 376.365 627.64 376.365C617.15 376.365 609.842 384.107 609.842 395.319C609.842 406.389 617.293 414.13 627.928 414.13H627.931ZM627.712 383.6C632.994 383.6 636.394 386.855 636.394 391.776H618.454C619.321 386.422 622.506 383.6 627.712 383.6Z" fill="white"/>
<path d="M664.648 414.131C670.074 414.131 674.704 411.743 676.873 407.618L677.452 413.188H685.555V359.363H676.803V382.008C674.561 378.462 670.147 376.366 665.154 376.366C654.376 376.366 647.865 384.323 647.865 395.465C647.865 406.535 654.303 414.131 664.648 414.131ZM666.601 406.028C660.452 406.028 656.69 401.542 656.69 395.177C656.69 388.809 660.452 384.253 666.601 384.253C672.75 384.253 676.73 388.737 676.73 395.177C676.73 401.614 672.75 406.028 666.601 406.028Z" fill="white"/>
<path d="M696.876 370.289C699.77 370.289 702.157 367.901 702.157 364.935C702.157 361.968 699.77 359.653 696.876 359.653C693.837 359.653 691.449 361.968 691.449 364.935C691.449 367.901 693.837 370.289 696.876 370.289ZM692.462 413.19H701.287V377.451H692.462V413.19Z" fill="white"/>
<path d="M706.03 395.247C706.03 406.605 713.119 414.131 723.971 414.131C733.302 414.131 740.249 408.415 741.332 400.095H732.434C731.494 404.002 728.384 406.171 723.971 406.171C718.328 406.171 714.855 401.975 714.855 395.247C714.855 388.519 718.616 384.25 724.259 384.25C728.455 384.25 731.421 386.347 732.432 390.399H741.259C740.319 381.79 733.663 376.363 723.895 376.363C713.335 376.363 706.027 384.178 706.027 395.245L706.03 395.247Z" fill="white"/>
<path d="M756.276 414.131C761.846 414.131 766.693 411.598 768.213 407.909L768.865 413.19H776.607V391.488C776.607 381.577 770.676 376.368 761.053 376.368C751.358 376.368 744.993 381.431 744.993 389.173H752.517C752.517 385.411 755.411 383.24 760.619 383.24C765.103 383.24 767.997 385.193 767.997 390.041V390.836L757.291 391.631C748.828 392.283 744.053 396.406 744.053 402.989C744.053 409.717 748.682 414.131 756.278 414.131H756.276ZM759.17 407.475C755.192 407.475 753.021 405.883 753.021 402.627C753.021 399.733 755.12 397.925 760.617 397.419L768.068 396.839V398.72C768.068 404.22 764.594 407.475 759.17 407.475Z" fill="white"/>
<path d="M791.907 413.19V359.365H783.152V413.19H791.907Z" fill="white"/>
<path d="M842.083 414.058C854.599 414.058 864.292 406.68 866.318 395.538H856.696C854.961 401.396 849.461 405.16 842.301 405.16C832.606 405.16 826.384 397.925 826.384 386.713C826.384 375.428 832.533 368.338 842.301 368.338C849.318 368.338 854.599 371.957 856.408 378.106H866.175C864.367 366.748 855.036 359.44 842.519 359.44C827.039 359.44 816.691 370.364 816.691 386.786C816.691 403.352 826.675 414.06 842.083 414.06V414.058Z" fill="white"/>
<path d="M887.046 414.131C896.377 414.131 902.89 409.429 904.407 401.614H896.232C895.219 405.015 892.036 406.896 887.189 406.896C881.328 406.896 878 403.713 877.351 397.419L904.262 397.346V394.67C904.262 383.53 897.461 376.366 886.755 376.366C876.265 376.366 868.957 384.107 868.957 395.32C868.957 406.389 876.408 414.131 887.043 414.131H887.046ZM886.828 383.601C892.109 383.601 895.51 386.856 895.51 391.776H877.569C878.436 386.422 881.621 383.601 886.828 383.601Z" fill="white"/>
<path d="M917.903 413.19V393.947C917.903 388.159 921.231 384.398 926.657 384.398C931.214 384.398 934.181 387.292 934.181 393.295V413.19H943.008V391.196C943.008 381.938 938.376 376.365 929.408 376.365C924.561 376.365 920.22 378.464 917.978 382.081L917.256 377.451H909.08V413.19H917.905H917.903Z" fill="white"/>
<path d="M961.562 413.19V384.83H968.509V377.452H961.562V366.31H952.737V377.452H945.863V384.83H952.737V413.19H961.562Z" fill="white"/>
<path d="M987.358 414.13C996.69 414.13 1003.2 409.428 1004.72 401.614H996.544C995.531 405.014 992.349 406.895 987.501 406.895C981.641 406.895 978.313 403.713 977.663 397.418L1004.57 397.346V394.67C1004.57 383.53 997.773 376.365 987.067 376.365C976.577 376.365 969.27 384.107 969.27 395.319C969.27 406.389 976.72 414.13 987.356 414.13H987.358ZM987.14 383.6C992.422 383.6 995.822 386.855 995.822 391.776H977.881C978.749 386.422 981.934 383.6 987.14 383.6Z" fill="white"/>
<path d="M1031.82 377.306C1030.37 376.945 1029.14 376.799 1027.91 376.799C1023.13 376.799 1019.73 379.187 1018.21 382.733L1017.71 377.524H1009.39V413.19H1018.21V395.829C1018.21 388.884 1022.19 385.484 1028.56 385.484H1031.81V377.308L1031.82 377.306Z" fill="white"/>
<path fill-rule="evenodd" clip-rule="evenodd" d="M745.329 275.834C751.062 275.834 755.708 280.48 755.708 286.21C755.708 291.942 751.062 296.589 745.329 296.589C739.597 296.589 734.953 291.942 734.953 286.21C734.953 280.478 739.599 275.834 745.329 275.834ZM743.196 291.533V287.56H745.482L747.285 291.533H749.324L747.3 287.165C748.553 286.656 749.222 285.636 749.222 284.211C749.222 282.114 747.809 280.892 745.392 280.892H741.33V291.533H743.194H743.196ZM743.196 282.55H745.395C746.573 282.55 747.273 283.149 747.273 284.211C747.273 285.287 746.573 285.915 745.395 285.915H743.196V282.55ZM745.329 277.506C750.138 277.506 754.036 281.404 754.036 286.213C754.036 291.021 750.138 294.919 745.329 294.919C740.521 294.919 736.623 291.021 736.623 286.213C736.623 281.404 740.521 277.506 745.329 277.506Z" fill="white"/>
</svg>
