<svg width="1280" height="703" viewBox="0 0 1280 703" fill="none" xmlns="http://www.w3.org/2000/svg">
<rect width="1280" height="703" fill="#9999FF"/>
<path d="M616.825 452.366L615.585 453.936C615.294 453.706 615.004 453.476 614.716 453.244C614.359 452.958 614.002 452.669 613.647 452.377L616.825 452.366ZM616.825 452.366C616.538 452.139 616.253 451.912 615.968 451.685C615.615 451.401 615.264 451.116 614.913 450.829L613.644 452.375M616.825 452.366L613.644 452.375M613.644 452.375C613.645 452.375 613.646 452.376 613.647 452.377L613.644 452.375ZM611.964 448.345L610.655 449.857C610.008 449.297 609.37 448.733 608.737 448.164C555.17 443.847 513.042 399.087 513.042 344.5C513.042 289.913 555.17 245.153 608.737 240.836C609.369 240.268 610.006 239.704 610.652 239.146L611.964 448.345ZM611.964 448.345C611.964 448.344 611.963 448.344 611.963 448.344L611.964 448.345ZM612.281 240.382L610.975 238.867C610.976 238.866 610.977 238.866 610.977 238.865L612.281 240.382ZM612.281 240.382C612.658 240.058 613.036 239.735 613.415 239.415C613.736 239.145 614.058 238.876 614.381 238.61L613.109 237.066M612.281 240.382L613.109 237.066M613.109 237.066C612.779 237.337 612.452 237.611 612.126 237.885C611.741 238.209 611.358 238.536 610.977 238.865L613.109 237.066ZM640.055 221.346L640.5 221.568L640.945 221.346C659.409 212.169 680.222 207 702.252 207C778.33 207 840 268.562 840 344.5C840 420.438 778.33 482 702.252 482C680.222 482 659.409 476.831 640.945 467.654L640.5 467.432L640.055 467.654C621.591 476.831 600.778 482 578.748 482C502.67 482 441 420.438 441 344.5C441 268.562 502.67 207 578.748 207C600.778 207 621.591 212.169 640.055 221.346ZM654.766 227.951L653.006 228.666L654.592 229.712C691.891 254.316 716.495 296.539 716.495 344.5C716.495 392.461 691.891 434.684 654.592 459.288L653.006 460.334L654.766 461.049C669.425 467.006 685.453 470.296 702.252 470.296C771.846 470.296 828.271 413.977 828.271 344.5C828.271 275.023 771.846 218.704 702.252 218.704C685.454 218.704 669.421 221.994 654.766 227.951ZM618.015 455.807L619.217 454.208C618.686 453.807 618.162 453.409 617.642 453.004L617.028 453.793L616.413 454.581C616.942 454.994 617.476 455.404 618.015 455.807ZM611.962 448.343C582.885 423.134 564.505 385.959 564.505 344.5C564.505 303.04 582.885 265.864 611.964 240.655L610.655 239.143C610.654 239.144 610.654 239.144 610.654 239.144L611.962 448.343ZM616.825 236.634L615.585 235.064C614.932 235.579 614.286 236.1 613.647 236.623L614.28 237.397L614.913 238.171C615.54 237.659 616.174 237.15 616.809 236.647C616.813 236.643 616.818 236.639 616.823 236.636C616.823 236.635 616.824 236.634 616.825 236.634ZM616.417 234.415L617.643 235.994C617.644 235.994 617.645 235.993 617.646 235.992C618.171 235.586 618.692 235.187 619.22 234.788L618.617 233.99L618.015 233.192C617.481 233.595 616.948 234.001 616.417 234.415ZM621.792 232.891L620.627 231.266C620.193 231.575 619.764 231.887 619.338 232.203L619.934 233.006L620.53 233.809C620.903 233.532 621.28 233.26 621.666 232.982L621.788 232.894L621.792 232.891ZM640.002 453.894L640.496 454.175L640.99 453.894C679.073 432.257 704.767 391.377 704.767 344.5C704.767 297.623 679.077 256.743 640.99 235.106L640.496 234.825L640.002 235.106C601.923 256.743 576.233 297.623 576.233 344.5C576.233 391.373 601.919 432.254 640.002 453.894ZM621.724 226.212L621.574 226.157L621.568 226.156C608.199 221.336 593.78 218.704 578.748 218.704C509.154 218.704 452.729 275.023 452.729 344.5C452.729 413.977 509.154 470.296 578.748 470.296C593.78 470.296 608.199 467.664 621.568 462.844L621.574 462.843L621.724 462.788L622.02 462.68C622.153 462.631 622.285 462.583 622.418 462.534C622.422 462.532 622.425 462.531 622.429 462.53C622.43 462.529 622.43 462.529 622.431 462.529L621.74 460.652L621.739 460.653C621.598 460.704 621.458 460.756 621.317 460.807C621.273 460.823 621.229 460.839 621.185 460.855C619.868 460.899 618.556 460.928 617.24 460.928C552.819 460.928 500.601 408.801 500.601 344.5C500.601 280.198 552.819 228.072 617.24 228.072C618.556 228.072 619.871 228.101 621.185 228.145C621.222 228.158 621.259 228.172 621.296 228.185C621.444 228.239 621.591 228.293 621.739 228.347L621.74 228.348L622.431 226.471C622.282 226.416 622.133 226.361 621.984 226.307L621.724 226.212Z" fill="white" stroke="white" stroke-width="2"/>
</svg>
