<svg width="16" height="14" viewBox="0 0 16 14" fill="none" xmlns="http://www.w3.org/2000/svg">
<g clipPath="url(#clip0_256_11049)">
<path fillRule="evenodd" clipRule="evenodd" d="M15.8667 1.9216C15.2837 2.18989 14.656 2.37133 13.9976 2.45239C14.67 2.03548 15.1859 1.37441 15.429 0.586905C14.7994 0.972935 14.1038 1.25377 13.3606 1.40432C12.7683 0.749034 11.9217 0.339844 10.9848 0.339844C9.18831 0.339844 7.7308 1.85018 7.7308 3.71278C7.7308 3.97721 7.75874 4.23392 7.81462 4.48098C5.10917 4.34008 2.71104 2.99862 1.10453 0.955561C0.824209 1.45547 0.664019 2.03548 0.664019 2.65313C0.664019 3.8228 1.23864 4.85543 2.11221 5.46053C1.5795 5.44413 1.07659 5.29068 0.637014 5.03976V5.08125C0.637014 6.71609 1.75924 8.07974 3.24934 8.38857C2.97647 8.4677 2.68869 8.50727 2.3916 8.50727C2.18206 8.50727 1.97717 8.48701 1.7788 8.44744C2.19323 9.78696 3.39462 10.7627 4.81953 10.7887C3.70568 11.6939 2.30127 12.2334 0.77671 12.2334C0.514081 12.2334 0.254248 12.218 0 12.1871C1.44074 13.1425 3.15248 13.7013 4.98996 13.7013C10.9783 13.7013 14.2518 8.56228 14.2518 4.1046C14.2518 3.95791 14.249 3.81122 14.2435 3.66742C14.8795 3.19164 15.4318 2.59812 15.8667 1.9216Z" fill="white"/>
</g>
<defs>
<clipPath id="clip0_256_11049">
<rect width="15.8667" height="13.3615" fill="white" transform="translate(0 0.339844)"/>
</clipPath>
</defs>
</svg>
